<?xml version="1.0" encoding="utf-8"?>
<!-- Generator: Adobe Illustrator 24.0.1, SVG Export Plug-In . SVG Version: 6.00 Build 0)  -->
<svg version="1.1" id="Camada_1" xmlns="http://www.w3.org/2000/svg" xmlns:xlink="http://www.w3.org/1999/xlink" x="0px" y="0px"
	 viewBox="0 0 34.7 34.7" style="enable-background:new 0 0 34.7 34.7;" xml:space="preserve">
<style type="text/css">
	.st0{fill:#495366;}
	.st1{display:none;fill:#FFFFFF;stroke:#D1D1D1;stroke-miterlimit:10;}
</style>
<g>
	<path class="st0" d="M28.5,10.7c-1.6-0.9-3.3-1.4-5.1-1.4s-3.5,0.3-5.1,1.1c-0.6-1.4-0.9-2.9-1.1-4.5C16.7,12.5,13.1,16,6.7,17
		c0.6,0.1,1.3,0.1,1.9,0.3c1.1,0.3,2.1,0.8,3.2,1.1c0.4,0.1,0.5,0.4,0.4,0.8c-0.3,4.4,1.5,7.9,5.2,10.3c3.2,2,6.7,2.1,10.2,0.6
		c0.1-0.1,0.3-0.1,0.4-0.2s0.3-0.2,0.4-0.3c0.4,1.7-0.8,3.2-2.5,3.2c-3.9,0-7.7,0-11.6,0c-1.9,0-3.9,0-5.8,0c-1.6,0-2.6-1-2.6-2.6
		C6,21.5,6,12.8,6,4c0-1.3,0.9-2.2,2.2-2.2c6,0,12.1,0,18.1,0c1.2,0,2.2,0.8,2.2,2c0.1,2.1,0,4.2,0,6.4
		C28.5,10.3,28.5,10.4,28.5,10.7z"/>
	<path class="st0" d="M29.1,28.1c-0.6-0.9-0.6-0.9-1.4-0.4c-5.4,3.4-12.6,0.1-13.6-6.3c-0.8-5,2.8-9.8,7.9-10.3
		c4.8-0.5,9.1,2.8,9.8,7.5c0.4,2.7-0.3,5.1-2,7.2c-0.1,0.1-0.2,0.4-0.2,0.5c0.2,0.2,0.3,0.7,0.8,0.6c0.2,0,0.5,0.1,0.6,0.2
		c0.9,1,1.7,2,2.6,3c0.3,0.3,0.2,0.6-0.1,0.9c-0.4,0.4-0.8,0.7-1.3,1.1c-0.3,0.3-0.6,0.3-0.9-0.1c-0.8-1-1.7-2-2.5-3
		C28.5,28.8,28.7,28.5,29.1,28.1z M23,14c-3.4,0-6.1,2.7-6.1,6.1c0,3.4,2.7,6.1,6.1,6.2c3.4,0,6.1-2.7,6.1-6.1
		C29.2,16.7,26.5,14,23,14z"/>
	<path class="st1" d="M23,14c3.4,0,6.1,2.7,6.1,6.2c0,3.4-2.8,6.1-6.1,6.1c-3.4,0-6.1-2.7-6.1-6.2C16.9,16.7,19.7,14,23,14z"/>
</g>
</svg>
