<?xml version="1.0" encoding="utf-8"?>
<!-- Generator: Adobe Illustrator 24.0.1, SVG Export Plug-In . SVG Version: 6.00 Build 0)  -->
<svg version="1.1" id="Camada_1" xmlns="http://www.w3.org/2000/svg" xmlns:xlink="http://www.w3.org/1999/xlink" x="0px" y="0px"
	 viewBox="0 0 1633.25 213.58" style="enable-background:new 0 0 1633.25 213.58;" xml:space="preserve">
<style type="text/css">
	.st0{fill:#1c1c22;}
</style>
<g>
	<path class="st0" d="M1292.5,80.15c0.89-10.99,6.07-18.14,8.24-27.02c-2.9-2.75-5.8-5.5-8.7-8.25c-2.75,2.91-5.5,5.81-8.25,8.71
		c2.69,8.51,7.05,15.78,8.25,26.56H1292.5z"/>
	<path class="st0" d="M-15.71-16.75v240h1664.52v-240H-15.71z M1292.04,18.78c7.03,16.23,17.48,31.59,23.82,41.68
		c-2.6-0.92-5.2-1.84-7.79-2.75c-4.31,6.03-8.1,12.75-10.99,20.15c-1.68,6.72-3.36,13.44-5.04,20.15
		c-1.04-13.99-8.03-31.85-16.03-40.3c-2.44,0.91-4.89,1.83-7.33,2.75C1275.94,46.75,1282.02,43.5,1292.04,18.78z M1290.21,108.09
		c-4.15,1.66-12.85,3.64-16.94,5.04c-2.6-1.68-4.71-3.43-8.24-5.5c2-1.6,3.54-2.5,7.79-5.95c5.95,1.53,11.91,3.05,17.86,4.58
		c-0.31-0.46-0.61-0.92-0.92-1.37c-3.97-3.66-7.94-7.33-11.91-10.99c0.31-3.36,0.61-6.72,0.92-10.08c3.76,2.16,5.47,1.94,9.16,4.12
		c1.37,5.5,2.75,11.91,4.12,17.4c0.15,0.09,0.27-0.06,0.46,0c1.53-5.65,3.05-12.21,4.58-17.86c3.05-1.22,6.11-2.44,9.16-3.66
		c0.15,3.51,0.3,7.02,0.46,10.53c-4.27,4.12-8.55,8.24-12.82,12.37c5.95-1.68,11.91-3.36,17.86-5.04c2.59,1.83,5.19,3.66,7.79,5.5
		c-0.61,1.22-3.07,2.23-7.79,5.95c-5.95-1.68-11.91-3.36-17.86-5.04c4.43,4.43,8.85,8.85,13.28,13.28c-0.46,3.2-0.92,6.41-1.37,9.62
		c-3.05-1.38-6.11-2.75-9.16-4.12c-1.38-5.95-2.75-11.91-4.12-17.86c-0.15,0-0.31,0-0.46,0c-1.37,5.95-2.75,11.91-4.12,17.86
		c-3.05,1.38-6.11,2.75-9.16,4.12c-0.31-3.51-0.61-7.02-0.92-10.54c3.58-2.64,8.18-7.51,12.37-11.91
		C1290.29,108.39,1290.13,108.24,1290.21,108.09z M1263.18,63.66c-2.52,2.15-2.83,2.39-5.95,5.04c7.2,16.68,16.94,25.1,26.6,33.87
		c-10.78-4.61-26.65-7.93-42.63-5.93c-1.23,5.59-1.26,7.09-1.37,7.33c-3.21-6.11-6.87-13.13-10.08-19.24
		c-4.73-7.17-9.47-14.35-14.2-21.53C1230.5,64.35,1247.24,64.79,1263.18,63.66z M1052.04,25.65c3.53,5.07,12.48,13.55,13.67,25.87
		c-0.55,6.14-6.97,13.31-13.67,18.1c-3.75-3.73-12.59-9.2-13.74-18.32C1039.53,43.46,1045.64,34.16,1052.04,25.65z M599.99,20.61
		c12.73,5.95,23.22,12.34,27.02,28.85c5.37,41.22-33.62,49.44-47.63,52.67C624.83,63.56,601.47,24.61,599.99,20.61z M515.24,49.46
		c3.8-16.51,14.29-22.9,27.02-28.85c-1.48,4-24.84,42.95,20.61,81.52C548.86,98.9,509.87,90.68,515.24,49.46z M151.6,154.81
		c-17.23,13.42-40.42,22.02-55.88,38.93c-9.16-6.87-18.32-13.74-27.48-20.61c-12.88-7.93-28.44-13.47-38.93-23.82
		c-4.02-3.97-7.83-11.42-5.95-19.7C29.38,103.02,52.86,89.64,60,68.7h0.46c0.96,19.23,18,28.86,33.89,32.98v0.45
		c-32.98-0.52-50.81,32.29-29.31,54.05c-11.09-4.4-28.9-17.94-24.74-35.27c1.68-6.96,5.96-11.61,9.16-16.94
		c-11.68,5.77-25.37,23.86-13.74,39.84c8.76,12.03,27.16,17.06,40.31,24.74c6.1,4.12,12.21,8.24,18.32,12.36l18.78-12.36
		c12.93-8.11,32.43-13.47,41.22-25.65c10.06-13.95-0.53-31.14-12.37-35.73v0.46c13.64,28.9-2.18,45.82-24.73,54.5
		c-5.71,2.2-13.91,4.51-23.82,3.67c-11.32-2.06-23.74-6.42-27.48-16.03c-3.75-13.07,7.77-21.4,20.15-17.41
		c-9.56,6.66-12.64,18.73-3.2,26.11c21.38,10.25,44.26-3.16,48.09-17.86c6.58-41.35-48.24-35.09-60.46-61.38
		c-8.59-20.89,20.69-30.24,21.53-58.16c1.08,0.41,18.21,20.6,15.57,31.14c-1.22,4.73-7.52,8.22-12.37,13.28
		c-6.04,7.81-11.87,19.37,2.75,29.78c-1.65-3.53-4.39-5.86-5.04-10.54c-0.31-14.16,12.79-22.6,19.24-26.11
		c-9.3,23.28,0.36,40.17,14.2,50.38c-1.22-6.64-5.3-8.92-7.79-13.73c-5.09-9.86-0.01-23.3,6.42-28.4
		c4.66,29.99,34.48,33.51,39.84,62.74C167.13,141.84,157.57,150.15,151.6,154.81z M72.82,125.95c4.26-8.93,8.32-12.17,16.95-14.66
		c33.75-2.88,38.98,34.4,12.37,38.94C113.71,129.19,90.59,117.07,72.82,125.95z M261.06,97.55c15.76-0.54,16.29,19.29,4.13,21.99
		C250.86,122.72,245.62,100.93,261.06,97.55z M278.96,151.95c-10.12,2.25-13.83-13.15-2.91-15.54
		C287.19,136.02,287.56,150.05,278.96,151.95z M395.26,158.93c-26.56,30.71-80.21,43.78-109.92,9.62c7.02,3.05,14.04,6.1,21.07,9.16
		c25.63,7.82,49.45,1.09,60.91-14.66c4.91-6.74,11.11-17.65,8.7-31.14c-3.78-21.26-17.46-34.39-38.93-38.02
		c-10.25-1.73-20.34,6.01-27.48,1.38c-7.71-5.02-5.36-16.93,2.29-20.16c41.28-17.38,87.93,22.88,75.57,66.87
		c-3.49,12.42-11.45,23.76-20.61,30.69c-3.35,2.13-6.71,4.27-10.07,6.41c17.6-8.2,31.34-20.37,38.01-39.39
		c13.21-37.66-10.41-71.72-36.18-82.44c-23.89-9.94-50.38-4.97-67.79,9.62c-8.15,6.81-6.72,8.1-12.82,14.2
		c-6.05,4.08-13.03,2.08-16.03-1.38c-6.67-7.68,2.53-17.52,6.41-21.98c11-12.65,25.06-22.59,42.14-28.4
		c5.52-1.48,11.13-2.48,16.94-2.75C399.78,25.45,438.75,103.18,395.26,158.93z M339.38,171.29c7.58-1.57,12.24-6.58,17.41-10.53
		c-9.22,16.04-29.74,18.25-43.05,8.24c-13-9.76-13.49-34.8-0.46-44.88c4.05-3.14,7.97-4.96,13.74-6.41
		c7.26-0.52,11.38-0.28,15.57,1.37c8.67,3.42,21.83,15.77,14.65,30.23c-1.44,2.1-3.43,2.94-6.41,3.66
		c-11.97,1.2-11.17-9.85-14.65-14.65c-2.33-2.62-6.59-4.24-13.28-1.38c-3.79,1.84-7.61,4.75-9.16,8.71
		C307.87,160.52,323.54,174.58,339.38,171.29z M514.78,130.07c-23.24,1.58-37.94-25.94-28.85-48.55
		c7.73,12.38,16.78,24.49,30.68,28.86c3.09,0.9,4.65,1.48,10.08,1.83c5.64-0.62,9.52-0.81,15.12,0.46
		c5.79,1.41,7.78,2.62,12.36,5.49c8.56,6.42,11.14,21.33,0.92,27.49c-2.75,1.24-5.15,1.03-6.87,0.91c-6.28-1.18-5.96-4.95-5.96-7.33
		c4.7,0.45,9.3-1.26,11.45-2.74c4.57-3.94,4.95-12.98-4.12-16.95c-6.46-1.2-9.93,1.95-16.03,4.58
		C526.96,126.96,519.82,129.61,514.78,130.07z M602.28,150.68c-2.91,2.92-17.81,14.25-31.15,43.51
		c-13.34-29.26-28.24-40.59-31.16-43.51v-0.45c2.27-0.79,3.67-1.13,7.33,0c3.13,2.52,5.67,3.5,10.99,0.45
		c14.72-7.44,12.44-26.15-0.91-35.26c-7.49-5.62-15.31-7-27.94-9.16c-15.09-2.46-40.23-11.29-31.6-44.89
		c1.41-4.48,2.87-9.09,5.95-15.11c2.26,8.71,2.12,26.47,21.98,44.42c12.85,9.97,39.23,16.17,44.89,33.9c0,0,0.48,0.01,0.47,0
		c-0.01,0.01,0.46,0,0.46,0c5.66-17.73,32.04-23.93,44.89-33.9c19.86-17.95,19.72-35.71,21.98-44.42
		c3.08,6.02,4.55,10.63,5.96,15.11c8.62,33.6-16.52,42.43-31.61,44.89c-12.62,2.16-20.44,3.54-27.93,9.16
		c-13.36,9.11-15.64,27.82-0.92,35.26c5.32,3.05,7.86,2.07,10.99-0.45c3.66-1.13,5.06-0.79,7.33,0V150.68z M627.47,130.07
		c-5.04-0.46-12.18-3.11-18.78-5.95c-6.1-2.63-9.57-5.78-16.03-4.58c-9.07,3.97-8.68,13.01-4.12,16.95
		c2.15,1.48,6.76,3.19,11.45,2.74c0,2.38,0.33,6.15-5.95,7.33c-1.72,0.12-4.13,0.33-6.87-0.91c-10.22-6.16-7.65-21.07,0.91-27.49
		c4.58-2.87,6.58-4.08,12.37-5.49c5.6-1.27,9.47-1.08,15.11-0.46c5.43-0.35,6.99-0.93,10.08-1.83c13.9-4.37,22.95-16.48,30.68-28.86
		C665.42,104.13,650.71,131.65,627.47,130.07z M846.4,132.36c0-0.15,0-0.31,0-0.46c15.91-35.01-47.68-36.78-42.59,9.62
		c6.46,27.27,34.36,34.34,61.83,22.44c8.64-4.02,13.13-7.63,19.7-11.45c-34.61,55.19-93.2,43.52-107.17,36.64
		c13.57,0.33,31.28,0.57,38.47-5.95c-22.05-5.19-42.42-17.39-46.26-41.68c-0.73-3.94-1.11-11.83,0.46-15.11
		c8,19.04,38.36,9.28,32.52-20.61c-2.59-9.15-10.31-17.29-18.78-20.61c-40.66-10.22-55.7,27.34-51.3,65.04
		c0.01,0.03-0.47-0.86-0.46-0.92c-23.35-41.92-6.01-90,22.44-110.38c-5.2,11.25-13.53,19.09-14.2,36.18
		c9.67-8.39,26.03-26.89,54.04-21.07c14.4,4.07,18.58,9.81,18.78,10.08c-13.81-0.48-21.04,9.25-16.49,23.82
		c6.78,16.3,31.08,20.37,45.8,8.24c3.65-3.49,7.09-8.23,9.16-13.28c12.71-35.41-23.91-54.04-41.22-63.21
		c37.45,1.18,61.32,20.76,75.11,43.51c9.39,15.82,10.99,30.24,10.99,31.14c-6.25-11.61-11.74-22.69-24.27-30.69
		c0,0.46,0,0.92,0,1.38C884.03,96.07,870.16,125.92,846.4,132.36z M1128.07,122.75c-0.53,0.11-1.31-0.01-1.83,0
		c-3.69-1.26-4.84-3.96-6.41-5.5c-0.35-0.24-0.93-0.29-1.37-0.46c-0.15,0.15-0.31,0.31-0.46,0.46
		c-6.49,32.41-32.65,36.83-49.82,48.02c-6.21,5.43-11.87,12.63-16.13,22.97c-3.7-6.54-2.96-10.71-13.74-21.53
		c-18.6-13.24-45.99-16.33-52.21-49.92c-0.61,0-1.22,0-1.83,0c-1.25,2.96-3.32,4.39-5.95,5.95c-4.96-0.57-8.08-3.27-11.45-5.5
		c0-0.46,0-0.92,0-1.37c3.38-2.39,5.77-5.43,10.99-5.95c1.99,1.37,3.97,2.75,5.95,4.12c0.46,0,0.92,0,1.38,0c0-0.46,0-0.92,0-1.37
		c-2.84-15.95,3.2-28.24,9.16-35.72c-0.15-0.31-0.31-1.07-0.46-1.38c-14.98,3.29-18.61-2.26-21.99-17.86
		c0.15-0.15,0.3-0.31,0.46-0.46c19.13,0.88,22.33,2.25,22.9,16.49c0.96,0.25,1.23,0.18,2.29,0c6.75-8.05,35.41-22.67,51.75,1.38
		c-1.22,2.14-2.44,4.27-3.66,6.41c-0.61,0-1.22,0-1.83,0c-8.8-13.09-27.41-11.83-38.93-3.21c-9.31,7.69-13.11,19.86-9.62,36.64
		c15.73,37.55,44.31,26.04,55.88,49.92c0.61,0,1.22,0,1.83,0c10.24-22.28,44.88-16.4,55.88-49.46c4.06-13.78,0.19-25.76-6.87-34.35
		c-9.1-10.54-32.42-13.75-41.68,0.92c-0.24-0.09-5.35-2.95-5.04-7.78c22.55-25.72,49.43-2.9,52.67,0c0.38,0.26,0.54-0.26,0.92,0
		c0.3-5.14,0.84-10.43,4.22-12.99c5.84-4.43,15.76-3.57,19.6-3.04c-2.89,8.9-4.41,14.45-8.7,16.95c-2.5,1.18-5.59,1.88-10.99,0.46
		c-0.93-0.11-1.66,0.18-2.75,0c0.19,0.34-0.19,1.03,0,1.38c2.27,2.79,4.16,5.99,5.95,9.16c4.47,12.34,3.34,17.29,3.21,27.94
		c0.44-0.14,1.04,0.16,1.37,0c1.51-1.65,1.96-3.18,5.95-4.12c0.31-0.08,1.02,0.07,1.38,0c2.73,0.86,6.63,3.61,9.62,6.87
		C1136.22,118.19,1132.21,121.9,1128.07,122.75z M1007.62,107.63c-0.76-1.17-1.58-4.4-1.37-6.41c0.48-10.81,9.16-16.92,16.49-18.32
		c9.06-0.34,14.08,1.98,16.95,7.78c-0.15,0.31-0.3,0.61-0.46,0.92c-9.33-0.24-11.91,1.53-14.66,7.79
		c-6.55,19.26,12.04,24.52,17.4,36.18c-9.27-5.35-12.51-9.84-23.82-13.28c-1.67-0.32-3.74-0.65-5.95-0.46
		c-5.13,0.51-4.58,0.83-8.7,0.92c0.31-0.61,0.61-1.22,0.92-1.83c2.14-3.04,4.73-3.88,8.24-5.04
		C1012.48,113.39,1011.36,112.44,1007.62,107.63z M1078.15,95.27c-3.07-4.06-8.25-3.94-12.82-3.67c-0.32-0.15-0.15-0.71-0.46-0.92
		c2.58-5.01,5.21-6.33,10.53-7.78c14.73-1.4,25.62,11.25,21.98,22.44c-2.07,4.79-2.9,4.99-4.58,7.33c-0.35,0.48-1.13,1.13-1.38,1.83
		c-0.16,0.47,0.22,0.99,0,1.38c5.56,1.34,6.87,2.77,9.16,6.41c0,0.15,0,0.31,0,0.46c-0.61,0-1.22,0-1.83,0
		c-11.72-5.13-30.01,9.01-36.64,13.28C1065.62,125.07,1090.16,117.43,1078.15,95.27z M1215.55,151.6c0.15-0.46,0.31-0.92,0.46-1.37
		c8.21-9.62,15.43-23.85,23.36-39.39c0.87,1.85,1.31,6.38,1.83,7.78c20.73,2.14,33.37-3.41,42.59-6.41
		c-0.15,0.31-0.3,0.61-0.45,0.92c-6.4,2.91-25.45,25.62-25.65,33.43c1.53,1.22,3.97,3.36,5.49,4.58
		C1247.49,149.85,1230.73,150.3,1215.55,151.6z M1292.5,196.03h-0.46v-0.92c-2.9-5.8-5.8-11.6-8.7-17.4
		c-4.89-7.79-9.77-15.58-14.66-23.36c2.6,0.91,5.19,1.83,7.79,2.75c6.11-9.1,14.49-22.48,15.57-40.31
		c4.37,18.24,7.22,30.73,16.49,40.31c2.44-0.92,4.88-1.84,7.33-2.75C1307.71,165.81,1298.54,181.1,1292.5,196.03z M1321.35,151.14
		c0.44-0.88,3.13-2.31,5.96-5.49c-11.01-22.7-22.07-28.71-26.57-33.44c11.59,3.58,15.38,7.14,42.37,6.43
		c0.75-2.64,1.14-5.35,1.6-7.8c3.36,6.41,6.72,12.82,10.08,19.23c4.73,7.18,9.46,14.36,14.19,21.53
		C1353.82,150.51,1337.03,149.75,1321.35,151.14z M1344.71,103.97c-0.89-5.3-1.36-7.66-1.37-7.79c-24.98-1.07-33.36,3.41-42.6,6.41
		c0.31-0.46,0.61-0.91,0.92-1.37c3.99-0.23,23.7-23.49,25.65-32.52c-1.99-1.68-3.97-3.36-5.96-5.04
		c17.73,0.83,22.26,1.58,47.63-0.46C1361.32,74.46,1349.56,92.35,1344.71,103.97z M1531.58,203.36
		c-2.57-2.14-54.79-37.55-87.02-92.97c4.67-8.93,11.21-17.31,18.32-24.27c3.92,9.06,10.08,25.57,18.32,39.85
		c9.76,16.59,20.69,32.15,32.06,47.17c5.95,7.17,12.37,14.35,18.32,21.53c13.44-15.52,33.88-37.53,39.39-61.37
		c-0.15,0-0.31,0-0.46,0c-12.82,10.84-25.65,21.68-38.47,32.52c-0.46-0.46-0.92-0.92-1.38-1.37c-10.47-8.77-30-33.9-35.27-47.63
		c9.68-9.43,19.49-18.3,30.69-26.11c2.99,2.22,5.2,4.47,7.33,8.24c-7.02,6.87-14.05,13.74-21.07,20.61
		c3.81,10.13,10.87,20.58,19.69,25.65c17.53-8.51,31.61-23.63,44.43-37.1c0.31,0.15,0.61,0.31,0.92,0.46
		c2.09,5.88,7.24,10.82,13.74,36.64C1583.18,157.17,1564.34,178.02,1531.58,203.36z M1599.36,135.11c-0.15,0-0.31,0-0.46,0
		c-1.14-7.25-5.16-13.73-7.79-19.69c-10.73-24.38-24.74-45.04-39.85-65.04c-6.56-7.94-13.13-15.88-19.69-23.82
		c-5.96,5.96-33.99,35.04-39.85,61.37c0.15,0,0.31,0,0.46,0c14.69-11.67,13.77-11.88,38.47-32.52c0.46,0.46,0.92,0.92,1.38,1.38
		c9.98,7.73,32.81,36.91,35.27,47.63c-9.36,9-19.49,18.3-30.69,26.11c-0.31,0-0.61,0-0.92,0c-2.14-2.75-4.28-5.5-6.41-8.24
		c7.02-6.87,14.05-13.74,21.07-20.61c-3.82-10.15-10.1-18.31-19.7-25.65c-17.52,9.44-31.61,23.63-44.43,37.1
		c-0.31-0.15-0.61-0.31-0.92-0.46c-5.27-11.04-10.24-18.41-13.74-37.1c13.01-17.24,36.8-42.16,59.9-57.68
		c0.79,1.38,40.86,28.25,71.55,70.05c4.75,6.47,12.09,15.78,14.66,23.36C1612.73,119.96,1606.89,126.94,1599.36,135.11z"/>
	<path class="st0" d="M563.33,165.8c6.19,8.41,6.59,11.02,7.8,12.82c1.21-1.8,1.6-4.4,7.79-12.82c-4.85-1.85-5.31-2.85-7.79-5.04
		C568.65,162.95,568.18,163.95,563.33,165.8z"/>
	<path class="st0" d="M1315.86,93.89c7.56-3.33,17.09-5.57,27.48-5.95c0.91-3.97,1.83-7.94,2.74-11.91
		c-4.51-0.2-8.17-1.65-11.45-3.21C1329.69,80.7,1321.6,88.39,1315.86,93.89z"/>
	<path class="st0" d="M571.13,147.02c-4.16,6.92-5.8,8.62-13.29,10.99c1.04,2.17,5.87,1.66,8.24,0.92c2.55-1.31,3.93-2.82,5.05-3.67
		c1.12,0.85,2.5,2.36,5.04,3.67c2.37,0.74,7.2,1.25,8.25-0.92C576.92,155.64,575.3,153.94,571.13,147.02z"/>
	<path class="st0" d="M1292.04,133.74c-1.55,10.98-5.7,22.24-8.25,27.94c3.06,2.59,6.03,5.54,8.71,8.7
		c1.84-3.03,5.65-6.41,8.24-9.16c-1.83-4.28-3.2-8.55-5.04-12.83C1294.63,143.81,1293.11,138.32,1292.04,133.74z"/>
	<path class="st0" d="M1241.2,126.87c-0.38,4.25-1.31,8.22-2.75,11.9c4.84,0.39,8.42,1.99,11.91,3.21
		c3.86-7.45,13.52-16.41,17.86-21.07C1260.57,124.55,1250.52,126.45,1241.2,126.87z"/>
	<path class="st0" d="M1316.31,120.91c5.8,6.29,15.34,14.96,18.32,21.07c3.42-1.53,6.85-2.87,11.45-3.21
		c-0.91-3.96-1.83-7.93-2.74-11.9C1335.78,126.62,1324.18,124.32,1316.31,120.91z"/>
	<path class="st0" d="M1268.22,93.89c-0.11-0.1,0.2-0.35,0-0.46c-5.67-4.72-15.41-15.21-18.32-20.61c-2.65,1.9-7.31,2.95-11.45,3.21
		c0.92,3.97,1.83,7.94,2.75,11.91C1251.34,88.02,1260.98,90.5,1268.22,93.89z"/>
</g>
</svg>
