<svg id="IconClock" xmlns="http://www.w3.org/2000/svg" xmlns:xlink="http://www.w3.org/1999/xlink" width="80" height="80" viewBox="0 0 500 500">
  <defs>
    <style>
      .cls-1, .cls-2 {
        fill: #f1f1f1;
        fill-rule: evenodd;
      }

      .cls-1 {
        opacity: 0.73;
        filter: url(#filter);
      }

      .cls-2 {
        filter: url(#filter-2);
      }
    </style>
    <filter id="filter" x="225.219" y="110.656" width="50.75" height="144.563" filterUnits="userSpaceOnUse">
      <feFlood result="flood" flood-color="#ceb88c"/>
      <feComposite result="composite" operator="in" in2="SourceGraphic"/>
      <feBlend result="blend" in2="SourceGraphic"/>
    </filter>
    <filter id="filter-2" x="39.5" y="29.938" width="424.375" height="423.094" filterUnits="userSpaceOnUse">
      <feFlood result="flood" flood-color="#ceb88c"/>
      <feComposite result="composite" operator="in" in2="SourceGraphic"/>
      <feBlend result="blend" in2="SourceGraphic"/>
    </filter>
  </defs>
  <path id="Forma_373_1" data-name="Forma 373 1" class="cls-1" d="M245.517,230.55V164.944l-20.291-7.918L250.59,110.65l25.363,46.376-20.29,7.918V230.55H245.517Zm5.235-5.116a14.9,14.9,0,1,1-14.9,14.9A14.9,14.9,0,0,1,250.752,225.434Z"/>
  <path id="Forma_371_1" data-name="Forma 371 1" class="cls-2" d="M421.656,284.637a5.16,5.16,0,0,1-.008-0.9A175.291,175.291,0,0,1,280.283,414.242a12.055,12.055,0,0,1,1.557.074c-25.589,13.041-30.1,38.706-30.1,38.706-6.442-28.343-31.79-38.706-31.79-38.706l3.613-.019A175.275,175.275,0,0,1,81.694,283.105a14.628,14.628,0,0,1,.025,1.8C68.687,259.3,39.494,255.4,39.494,255.4c23.865-5.431,34.868-24.137,37.774-29.941C84.483,145.716,145.125,81.544,223.062,68.67l-3.109-.016s25.348-10.363,31.79-38.706c0,0,4.508,25.665,30.1,38.706a7.188,7.188,0,0,1-1.1.064C358.505,81.71,418.985,145.79,426.216,225.394c3.044,6.009,14.048,24.359,37.665,29.734C463.881,255.128,434.688,259.03,421.656,284.637ZM251.36,97.824c-78.972,0-142.991,64.12-142.991,143.215S172.388,384.255,251.36,384.255s142.992-64.12,142.992-143.216S330.332,97.824,251.36,97.824Zm47.289,195.133s-5.711-15.375-25.9-16.54a42.1,42.1,0,0,1-21.613,6.09,42.681,42.681,0,1,1,39.346-26.463c3.925,25.437,18.656,25.533,18.656,25.533l21.423-11.819,13.131,54.254-55.1-8.737Zm-47.511-84.234a31.208,31.208,0,1,0,18.5,56.2c2.259-2.346,4.634-4.76,6.953-7.059A31.144,31.144,0,0,0,251.138,208.723Z"/>
</svg>
