<svg xmlns="http://www.w3.org/2000/svg" xmlns:xlink="http://www.w3.org/1999/xlink" width="80" height="80" viewBox="0 0 500 500">
  <defs>
    <style>
      .cls-1 {
        filter: url(#filter);
      }

      .cls-2 {
        fill: #495366;
        fill-rule: evenodd;
      }
    </style>
    <filter id="filter" filterUnits="userSpaceOnUse">
      <feFlood result="flood" flood-color="#ece5d8"/>
      <feComposite result="composite" operator="in" in2="SourceGraphic"/>
      <feBlend result="blend" in2="SourceGraphic"/>
    </filter>
  </defs>
  <g id="IconFeedback" class="cls-1">
    <g id="vetor">
      <path id="Forma_356_1" data-name="Forma 356 1" class="cls-2" d="M325.441,291.71v53.369s32.374-33.458,34.568-35.579A72.36,72.36,0,0,1,325.441,291.71Z"/>
      <path id="Forma_356_1_copiar" data-name="Forma 356 1 copiar" class="cls-2" d="M404.7,138.675L327.019,289.5s15.111,13.186,33.291,16.759c-2.46,4.534,77.679-150.828,77.679-150.828S422,152.065,404.7,138.675Z"/>
      <path id="Forma_356_1_copiar_2" data-name="Forma 356 1 copiar 2" class="cls-2" d="M410.151,128.78l-4.209,7.751s15.111,13.186,33.291,16.758c-2.46,4.535,3.54-7.2,3.54-7.2S427.457,142.169,410.151,128.78Z"/>
      <path id="Forma_356_1_copiar_3" data-name="Forma 356 1 copiar 3" class="cls-2" d="M65.059,129.795l260.329-51.3,46.354,116.261-49.458,97.335v60.023l26.833-14.6,58.93-43.259,41.04,89.764L189.2,454.139Zm350.354-10.749L411.2,126.8s15.111,13.186,33.291,16.759c-2.461,4.535,3.54-7.206,3.54-7.206S439.074,112.98,415.413,119.046ZM165.329,168.61l82.125-20.054,1.91,2.864-82.125,21.009Zm8.594,23.873L299.976,160.97l1.91,3.82L175.833,196.3Zm18.144,42.973,39.153-9.55,1.91,3.82-39.153,9.55Zm45.692-12.5,32.045-7.574,1.669,3.931-32.045,7.574ZM199.707,255.51l33.423-8.595,1.91,3.82-33.423,9.549ZM244.589,243.1l75.441-21.963,1.91,3.819L246.5,246.915Zm-37.243,26.739,31.514-8.6,1.909,3.82-31.513,8.595Zm13.37,27.693,68.756-20.054,1.91,3.82-68.757,20.054Zm7.976,17.662,28.1-8.269,1.688,4.858-27.148,8.312Zm41.453-12.948,45.5-13.326,1.743,3.9-44.547,13.368Zm-130.6-127.9,4.775-4.775,4.775,4.775-4.775,4.775Zm35.333,90.72,4.775-4.775,4.775,4.775-4.775,4.775Zm-24.829-65.891,4.775-4.775,4.775,4.775-4.775,4.775Zm42.018,106,4.775-4.775,4.775,4.775-4.775,4.775ZM167.239,244.05l4.774-4.774,4.775,4.774-4.775,4.775Zm32.468,81.171,4.774-4.775,4.775,4.775L204.481,330Z"/>
    </g>
  </g>
</svg>
