<svg id="IconArquivo" xmlns="http://www.w3.org/2000/svg" width="80" height="80" viewBox="0 0 500 500">
  <defs>
    <style>
      .cls-1, .cls-2 {
        fill: #ece5d8;
        fill-rule: evenodd;
      }

      .cls-2 {
        opacity: 0.51;
      }
    </style>
  </defs>
  <path id="Forma_382_1" data-name="Forma 382 1" class="cls-1" d="M271.021,420.626c-0.275,15.351-61.656,39.566-73.788,11.332C184.423,398.066,72.361,176.987,72.361,176.987s-23.521-29.415-5.676-45.329c20.683-18.512,51.084-11.332,51.084-11.332L295.612,58,370,138s6.459,62.878,6.065,63.666c19.294,22.838,57.466,86.2,57.466,86.2l2.093,13.774-5.676,5.666v22.664l5.676,17h11.352v5.666S276.787,418.433,271.021,420.626Zm-55.862-.588c8.489,3,5.747-5.747,5.747-5.747s-11.776-15.839,0-28.733c11.108-17.235,40.226-5.746,40.226-5.746L410.545,316.6l5.746,28.733v-34.48h-5.746L261.132,374.065s-21.333-10.891-40.226,0C204.017,387.8,206.837,410.358,215.159,420.038Zm-97.39-282.714L231.289,341.3h5.676L123.445,137.324h-5.676Zm241.056,64.342c-1.006-92.249-63.213-114.933-63.213-114.933S392,162.4,301.359,253.386a9.439,9.439,0,0,1-1.152,1.232C348.468,131.122,252,76,252,76l-4.594,1.739-4.765,2.925-62.436,39.662s-26.029-8.107-34.056,17c-2.676,29.913,28.38,34,28.38,34s86.112,96.208,104.4,115.566a43.558,43.558,0,0,0-.557,23.965c-2.107.094-22.986,22.987-22.986,22.987l28.733,28.733,28.733-11.494,5.747-28.733s-19.981-3.644-22.987-11.493S290.5,292.608,318.6,264.879c9.122-8.755,34.479-34.48,34.479-34.48s22.851-1.163,34.48,28.733c0.195,3.691-28.733,45.973-28.733,45.973v5.747l63.213-17.24S382.613,228.7,358.825,201.666ZM179,168s1.054-11.936,8-10c3.715,1.775,117,58,117,58s-6.378,37.165-23,63C279.692,280.314,179,168,179,168Zm14-29c1.615,0,104-1,104-1s14.935,24.753,9,72c-1.549-.322-91.72-46.546-116.114-56.691C185.884,147.634,187.337,141.364,193,139Zm0-6c-4.2-2.1-4-11-4-11l61-40s29.889,16.836,45,50C293.74,132.354,196.715,133.161,193,133ZM390,279l8,13,11-3-14-21Z"/>
  <path id="Forma_383_1" data-name="Forma 383 1" class="cls-2" d="M295,86s95.74,77.955,6,168c-0.584,1.392-31.9,25.294-23,57-2.087.093-23,23-23,23l29,30,30-13,5-29s-20.2-3.42-23.172-11.187-5.065-18.057,22.758-45.5c9.032-8.665,34.138-34.125,34.138-34.125s22.624-1.152,34.138,28.437c0.193,3.653-28.448,45.5-28.448,45.5L359,311l64-17s-39.724-66.423-63-92C359.764,110.32,295,86,295,86Z"/>
</svg>
