<svg id="IconMap" xmlns="http://www.w3.org/2000/svg" width="80" height="80" viewBox="0 0 500 500">
  <defs>
    <style>
      .cls-1 {
        fill: #ece5d8;
        fill-rule: evenodd;
      }
    </style>
  </defs>
  <path id="Forma_377_1" data-name="Forma 377 1" class="cls-1" d="M440.837,412.132s-83.48,11.3-131.366,34.284c-0.447-29.067,0-302.835,0-302.835s72.2-18.737,131.366-22.855C440.322,121.755,440.837,412.132,440.837,412.132ZM331.447,315.6c-5.142-1.544-12.583,2.187-12.583,2.187s-6.514,4.01-1.642,5.473c5.088,1.528,12.583-2.187,12.583-2.187S336.589,317.147,331.447,315.6Zm26.671-12.72c-5.354-.4-11.818,4.843-11.818,4.843s-5.5,5.318-.427,5.7c5.3,0.4,11.818-4.843,11.818-4.843S363.472,303.284,358.118,302.882Zm16.265-24.2c-4.782,2.442-7.579,10.284-7.579,10.284s-1.934,7.4,2.6,5.089c4.732-2.415,7.579-10.283,7.579-10.283S379.165,276.24,374.383,278.681Zm7.782-31.057c-3.947,3.641-4.525,11.948-4.525,11.948s0.134,7.65,3.873,4.2c3.905-3.6,4.524-11.948,4.524-11.948S386.111,243.982,382.165,247.624ZM303.76,446.416c-73.313-27.146-114.231-34.284-114.231-34.284V238.857c8.756,2.362,8.933-2.892,8.933-2.892-0.6-2.544-8.933-2.821-8.933-2.821V103.584s59.242,13.8,114.231,40C303.323,143.581,305.937,446.018,303.76,446.416ZM221.7,241.341c-3.908-3.683-12.231-3.677-12.231-3.677s-7.619.671-3.917,4.16c3.867,3.644,12.232,3.676,12.232,3.676S225.6,245.024,221.7,241.341Zm24.363,13.645c-2.459-4.775-10.308-7.543-10.308-7.543s-7.407-1.908-5.078,2.616c2.432,4.725,10.308,7.544,10.308,7.544S248.517,259.762,246.059,254.986Zm8.9,10.284s-5.733-5.065-5.712.023c0.022,5.315,5.758,11.4,5.758,11.4s5.734,5.347,5.712-.024S254.962,265.27,254.962,265.27Zm15.827,25.63s-6.042-4.691-5.7.385c0.358,5.3,6.469,11.017,6.469,11.017s6.061,4.973,5.7-.386S270.789,290.9,270.789,290.9Zm29.147,28.519c-2.663-4.664-10.625-7.09-10.625-7.09s-7.482-1.586-4.96,2.833c2.635,4.615,10.625,7.09,10.625,7.09S302.6,324.083,299.936,319.419ZM58.163,126.44l125.654-22.856V412.132s-61.953,9.18-125.654,28.57C58.267,422.953,58.163,126.44,58.163,126.44Zm84.073,165.6c-4.607,2.759-6.867,10.773-6.867,10.773s-1.431,7.516,2.933,4.9c4.558-2.73,6.868-10.772,6.868-10.772S146.843,289.277,142.236,292.035Zm22.274-30.89c4.714-2.45,7.5-10.339,7.5-10.339s2.13-7.547-2.634-5.07-7.5,10.339-7.5,10.339S160,263.492,164.51,261.145Zm-6.678,12.695s2.13-7.547-2.634-5.07-7.5,10.34-7.5,10.34-1.88,7.416,2.633,5.07C155.043,281.729,157.832,273.84,157.832,273.84Zm-53.976,81.154,5.711,5.714L126.7,343.566l17.134,17.142,5.712-5.714-17.135-17.142,17.135-17.141L143.836,315,126.7,332.139,109.567,315l-5.711,5.714,17.134,17.141Z"/>
</svg>
