<svg xmlns="http://www.w3.org/2000/svg" xmlns:xlink="http://www.w3.org/1999/xlink" width="60" height="60" viewBox="0 0 500 500">
  <defs>
    <style>
    feFlood{
      flood-color="#fff";
    }
    @media (prefers-color-scheme: dark) {
      feFlood{
      flood-color="#000";
    }
    }
    </style>
    <filter id="filter" filterUnits="userSpaceOnUse">
      <feFlood result="flood" flood-color="#fff"/>
      <feComposite result="composite" operator="in" in2="SourceGraphic"/>
      <feBlend result="blend" in2="SourceGraphic"/>
    </filter>
  </defs>
  <g id="IconClock_" data-name="IconClock " class="cls-1">
    <path id="Forma_373_1" data-name="Forma 373 1" class="cls-2" d="M242.351,238.164v-75.75l-23.431-9.142,29.289-53.547L277.5,153.272l-23.431,9.142v75.75H242.351Zm6.047-5.914a17.2,17.2,0,1,1-17.22,17.2A17.212,17.212,0,0,1,248.4,232.25Z"/>
    <path id="Forma_371_1" data-name="Forma 371 1" class="cls-3" d="M445.748,300.613a5.821,5.821,0,0,1-.009-1.044A202.409,202.409,0,0,1,282.5,450.257a13.792,13.792,0,0,1,1.8.086c-19.85,13.781-22.553,35.675-25.22,44.44-9.8,11.761-18.476,0-18.476,0-7.438-32.725-27.768-44.44-27.768-44.44l4.172-.022A202.392,202.392,0,0,1,53.176,298.845a16.892,16.892,0,0,1,.029,2.077C42.4,279.689,11.228,276.092,5.03,275.16c-11.262-10.331,0-18.952,0-18.952,27.558-6.271,39.679-17.225,43.035-23.927C56.4,140.213,126.423,66.119,216.422,51.255l-3.591-.019s19.175-12.027,26.614-44.753c0,0,9.551-11.435,19.63,0,2.556,8.581,5.5,31.765,25.22,44.753a8.318,8.318,0,0,1-1.271.074c89.8,15,159.64,88.988,167.989,180.9,3.516,6.938,15.205,17.792,42.477,24,0,0,14.624,9.571,0,20.067C481.716,278.45,457.528,282.487,445.748,300.613ZM249.1,84.916c-91.193,0-165.12,74.034-165.12,165.359S157.906,415.634,249.1,415.634,414.218,341.6,414.218,250.275,340.292,84.916,249.1,84.916Zm54.607,225.3s-6.6-17.751-29.906-19.1a48.639,48.639,0,0,1-24.958,7.031A49.284,49.284,0,1,1,294.277,267.6c4.532,29.37,21.543,29.482,21.543,29.482l24.738-13.648,15.164,62.643L292.1,335.988Zm-54.864-97.257a36.033,36.033,0,1,0,21.368,64.892c2.608-2.708,5.351-5.5,8.028-8.15A35.958,35.958,0,0,0,248.842,212.962Z"/>
  </g>
</svg>
