<svg xmlns="http://www.w3.org/2000/svg" xmlns:xlink="http://www.w3.org/1999/xlink" width="80" height="80" viewBox="0 0 500 500">
  <defs>
    <style>
      .cls-1 {
        filter: url(#filter);
      }

      .cls-2 {
        fill: #ece5d8;
        fill-rule: evenodd;
      }
    </style>
    <filter id="filter" filterUnits="userSpaceOnUse">
      <feFlood result="flood" flood-color="#d3bc8e"/>
      <feComposite result="composite" operator="in" in2="SourceGraphic"/>
      <feBlend result="blend" in2="SourceGraphic"/>
    </filter>
  </defs>
  <g id="IconConquista" class="cls-1">
    <g id="taça">
      <path id="Forma_364_1" data-name="Forma 364 1" class="cls-2" d="M398.648,207.793c-2.7,47.269-32.881,78.872-32.881,78.872s-11.6,15.341-23.119,8.437c0.018-.026-3.185,11.281-3.185,11.281l-80.815,73.555s-5.77,41.031,7.226,46.931c2.367,1.342,48.867,21.348,48.867,21.348v9.552H182.933v-9.552s46.825-19.91,49.192-21.253c13-5.9,7.226-46.931,7.226-46.931l-80.815-73.555s-3.2-11.307-3.185-11.281c-11.52,6.9-23.119-8.437-23.119-8.437s-30.178-31.6-32.881-78.872,52.609-32.863,52.609-32.863V155.307h95.865v-0.1h98.214v19.718S401.35,160.524,398.648,207.793Zm-246.007-20s-48-12.947-41.548,23.466,32.585,80.251,42.452,62.273Zm96.374,21.188c-11.449,36.8-35.722,40.9-46.7,44.7,33.011,8.274,43.556,33.2,46.667,44.253,3.077-11,13.589-36.051,46.694-44.348C284.716,249.8,260.477,245.7,249.015,208.985ZM345.357,187.7l-0.9,85.739c9.867,17.977,36-25.861,42.452-62.274S345.357,187.7,345.357,187.7Z"/>
    </g>
    <g id="cora">
      <path id="Forma_1" data-name="Forma 1" class="cls-2" d="M440.107,311.312c-1.357-1.164,12.487-24.9,6.132-61.418,0,0,.684-15.8,18.4-30.708C463.614,218.013,508.759,262,440.107,311.312Zm-18.4-128.977c-11.373-24.458,0-42.992,0-42.992s47.941,20.2,24.527,98.268C446.239,237.611,441.112,211.483,421.712,182.335Zm-104.24,221.1c-3.328-.011-23.8,3.6,0-12.284,15.117-14.512,16.978-24.52,18.4-42.992,9.185-30.6,24.527-36.85,24.527-36.85s10.709,36.745.138,55c1.7-2.253,18.257-18.145,18.257-18.145s-23.07-30.083,6.132-67.559c1.742,2.735,18.522,4.416,18.395,36.85a59.532,59.532,0,0,1,0,6.142l12.264-24.567s-36.811-21.674-18.395-61.417c0.941-.874,14.324-1.933,24.527,18.425,2.57,2.816,5.01,18.491,6.131,18.425,0.979-.057.047-0.274,0,0,1.235-2.946,0-12.283,0-12.283s-0.888-5.962-6.131-24.567c-0.522-.026-23.792,1.14-18.4-55.276,0,0-46.1-22.336-30.658-85.984,2.917-.928,50.092,24.129,36.79,85.984C409.6,183.763,514.3,324.892,317.472,403.438Zm60.911,82.629c-31.257-5.813-37.541-8.443-65.084-14.266,1.363-.836,20.506-11.59,20.506-11.59S361.669,473.087,378.383,486.067Zm18.8-119.48c-0.05-1.066,27.652-17.591,36.79-42.992,3.2-4.119,17.628-14.775,42.922-12.283C475.918,311.973,446.125,380.927,397.185,366.587Zm-67.45,42.992c0.309,0.565,6.132-6.141,6.132-6.141s25.911-8.242,49.054-24.567c0.983-.078,36.791,0,36.791,0S424.01,416.567,329.735,409.579Zm-7.3-373.545s-15.719,68.244,38.126,94.082c2.971-6.952,20.023-63.809-37.073-93.137"/>
      <path id="Forma_1_copiar" data-name="Forma 1 copiar" class="cls-2" d="M58.268,311.312c1.357-1.164-12.487-24.9-6.132-61.418,0,0-.684-15.8-18.4-30.708C34.762,218.013-10.384,262,58.268,311.312Zm18.4-128.977c11.373-24.458,0-42.992,0-42.992s-47.941,20.2-24.527,98.268C52.136,237.611,57.263,211.483,76.663,182.335Zm104.24,221.1c3.328-.011,23.8,3.6,0-12.284-15.117-14.512-16.978-24.52-18.395-42.992-9.185-30.6-24.527-36.85-24.527-36.85s-10.709,36.745-.138,55c-1.7-2.253-18.257-18.145-18.257-18.145s23.07-30.083-6.132-67.559c-1.742,2.735-18.522,4.416-18.4,36.85a59.616,59.616,0,0,0,0,6.142L82.8,299.028s36.811-21.674,18.395-61.417c-0.941-.874-14.324-1.933-24.527,18.425-2.571,2.816-5.01,18.491-6.132,18.425-0.978-.057-0.047-0.274,0,0-1.234-2.946,0-12.283,0-12.283s0.888-5.962,6.132-24.567c0.522-.026,23.792,1.14,18.4-55.276,0,0,46.1-22.336,30.658-85.984-2.917-.928-50.092,24.129-36.79,85.984C88.771,183.763-15.926,324.892,180.9,403.438Zm-60.911,82.629c31.257-5.813,37.541-8.443,65.084-14.266-1.363-.836-20.506-11.59-20.506-11.59S136.705,473.087,119.992,486.067Zm-18.8-119.48C101.24,365.521,73.538,349,64.4,323.6c-3.2-4.119-17.628-14.775-42.922-12.283C22.457,311.973,52.25,380.927,101.19,366.587Zm67.45,42.992c-0.309.565-6.132-6.141-6.132-6.141S136.6,395.2,113.454,378.871c-0.983-.078-36.791,0-36.791,0S74.365,416.567,168.64,409.579Zm7.3-373.545s15.719,68.244-38.126,94.082c-2.971-6.952-20.023-63.809,37.073-93.137"/>
    </g>
  </g>
</svg>
